<mxfile host="65bd71144e">
    <diagram id="vVA_o35hJ7-RhdYQv6_G" name="物理架构">
        <mxGraphModel dx="2088" dy="1441" grid="1" gridSize="10" guides="1" tooltips="1" connect="1" arrows="1" fold="1" page="1" pageScale="1" pageWidth="827" pageHeight="1169" math="0" shadow="0">
            <root>
                <mxCell id="0"/>
                <mxCell id="1" parent="0"/>
                <mxCell id="44" style="edgeStyle=none;html=1;strokeWidth=2;fontSize=16;endArrow=none;endFill=0;" parent="1" source="26" target="oEgxVoZ06rKnOK16Z4o3-8" edge="1">
                    <mxGeometry relative="1" as="geometry"/>
                </mxCell>
                <mxCell id="89" value="tcp" style="edgeLabel;html=1;align=center;verticalAlign=middle;resizable=0;points=[];" vertex="1" connectable="0" parent="44">
                    <mxGeometry x="0.12" y="-4" relative="1" as="geometry">
                        <mxPoint y="-5" as="offset"/>
                    </mxGeometry>
                </mxCell>
                <mxCell id="26" value="" style="rounded=0;whiteSpace=wrap;html=1;fillColor=#dae8fc;strokeColor=#6c8ebf;fontSize=15;" parent="1" vertex="1">
                    <mxGeometry x="-470" y="460" width="140" height="330" as="geometry"/>
                </mxCell>
                <mxCell id="oEgxVoZ06rKnOK16Z4o3-8" value="" style="rounded=0;whiteSpace=wrap;html=1;fillColor=#dae8fc;strokeColor=#6c8ebf;fontSize=15;" parent="1" vertex="1">
                    <mxGeometry x="-1320" y="460" width="830" height="330" as="geometry"/>
                </mxCell>
                <mxCell id="oEgxVoZ06rKnOK16Z4o3-9" value="业务服务层" style="text;html=1;strokeColor=none;fillColor=none;align=center;verticalAlign=middle;whiteSpace=wrap;rounded=0;fontSize=15;" parent="1" vertex="1">
                    <mxGeometry x="-1300" y="470" width="100" height="20" as="geometry"/>
                </mxCell>
                <mxCell id="zxybhiNNPWDu_kbE6-t5-33" style="edgeStyle=none;html=1;strokeWidth=2;fontSize=15;endArrow=none;endFill=0;endSize=6;" parent="1" source="zxybhiNNPWDu_kbE6-t5-13" target="75" edge="1">
                    <mxGeometry relative="1" as="geometry">
                        <mxPoint x="-825" y="-30" as="targetPoint"/>
                    </mxGeometry>
                </mxCell>
                <mxCell id="zxybhiNNPWDu_kbE6-t5-13" value="开发者" style="shape=umlActor;verticalLabelPosition=bottom;verticalAlign=top;html=1;fontSize=15;" parent="1" vertex="1">
                    <mxGeometry x="-840" y="-80" width="30" height="60" as="geometry"/>
                </mxCell>
                <mxCell id="85" style="edgeStyle=none;html=1;strokeWidth=2;fontSize=10;endArrow=none;endFill=0;" parent="1" source="zxybhiNNPWDu_kbE6-t5-24" target="67" edge="1">
                    <mxGeometry relative="1" as="geometry"/>
                </mxCell>
                <mxCell id="86" value="https" style="edgeLabel;html=1;align=center;verticalAlign=middle;resizable=0;points=[];fontSize=10;" parent="85" vertex="1" connectable="0">
                    <mxGeometry x="0.1585" y="3" relative="1" as="geometry">
                        <mxPoint as="offset"/>
                    </mxGeometry>
                </mxCell>
                <mxCell id="zxybhiNNPWDu_kbE6-t5-24" value="" style="rounded=0;whiteSpace=wrap;html=1;fontSize=13;fillColor=#e1d5e7;strokeColor=#9673a6;" parent="1" vertex="1">
                    <mxGeometry x="-1320" y="280" width="990" height="90" as="geometry"/>
                </mxCell>
                <mxCell id="zxybhiNNPWDu_kbE6-t5-28" value="交互层" style="text;html=1;strokeColor=none;fillColor=none;align=center;verticalAlign=middle;whiteSpace=wrap;rounded=0;fontSize=15;" parent="1" vertex="1">
                    <mxGeometry x="-1290" y="290" width="60" height="30" as="geometry"/>
                </mxCell>
                <mxCell id="oEgxVoZ06rKnOK16Z4o3-18" style="edgeStyle=none;html=1;endArrow=none;endFill=0;fontSize=15;strokeWidth=2;entryX=0.422;entryY=0.041;entryDx=0;entryDy=0;entryPerimeter=0;" parent="1" source="oEgxVoZ06rKnOK16Z4o3-8" target="oEgxVoZ06rKnOK16Z4o3-11" edge="1">
                    <mxGeometry relative="1" as="geometry">
                        <mxPoint x="-905" y="810" as="sourcePoint"/>
                    </mxGeometry>
                </mxCell>
                <mxCell id="88" value="tcp" style="edgeLabel;html=1;align=center;verticalAlign=middle;resizable=0;points=[];fontSize=9;" parent="oEgxVoZ06rKnOK16Z4o3-18" vertex="1" connectable="0">
                    <mxGeometry x="-0.3431" y="5" relative="1" as="geometry">
                        <mxPoint as="offset"/>
                    </mxGeometry>
                </mxCell>
                <mxCell id="2" value="" style="rounded=0;whiteSpace=wrap;html=1;fontSize=13;fillColor=#d5e8d4;strokeColor=#82b366;" parent="1" vertex="1">
                    <mxGeometry x="-1320" y="380" width="990" height="70" as="geometry"/>
                </mxCell>
                <mxCell id="5" value="API接入层" style="text;html=1;strokeColor=none;fillColor=none;align=center;verticalAlign=middle;whiteSpace=wrap;rounded=0;fontSize=15;" parent="1" vertex="1">
                    <mxGeometry x="-1290" y="390" width="80" height="30" as="geometry"/>
                </mxCell>
                <mxCell id="7" value="«html»&lt;br&gt;&lt;span style=&quot;font-size: 13px;&quot;&gt;Cloud Pod Web&lt;/span&gt;" style="html=1;dropTarget=0;" parent="1" vertex="1">
                    <mxGeometry x="-740" y="300" width="230" height="60" as="geometry"/>
                </mxCell>
                <mxCell id="8" value="" style="shape=module;jettyWidth=8;jettyHeight=4;" parent="7" vertex="1">
                    <mxGeometry x="1" width="20" height="20" relative="1" as="geometry">
                        <mxPoint x="-27" y="7" as="offset"/>
                    </mxGeometry>
                </mxCell>
                <mxCell id="54" style="edgeStyle=none;html=1;entryX=0.75;entryY=0;entryDx=0;entryDy=0;strokeWidth=2;fontSize=15;endArrow=none;endFill=0;" parent="1" source="9" target="11" edge="1">
                    <mxGeometry relative="1" as="geometry"/>
                </mxCell>
                <mxCell id="56" value="http" style="edgeLabel;html=1;align=center;verticalAlign=middle;resizable=0;points=[];fontSize=10;" parent="54" vertex="1" connectable="0">
                    <mxGeometry x="-0.311" y="3" relative="1" as="geometry">
                        <mxPoint x="1" as="offset"/>
                    </mxGeometry>
                </mxCell>
                <mxCell id="55" style="edgeStyle=none;html=1;entryX=0.75;entryY=0;entryDx=0;entryDy=0;strokeWidth=2;fontSize=15;endArrow=none;endFill=0;" parent="1" source="9" target="13" edge="1">
                    <mxGeometry relative="1" as="geometry"/>
                </mxCell>
                <mxCell id="57" value="http" style="edgeLabel;html=1;align=center;verticalAlign=middle;resizable=0;points=[];fontSize=10;" parent="55" vertex="1" connectable="0">
                    <mxGeometry x="-0.1895" y="4" relative="1" as="geometry">
                        <mxPoint as="offset"/>
                    </mxGeometry>
                </mxCell>
                <mxCell id="9" value="«Spring Cloud»&lt;br&gt;&lt;span style=&quot;font-size: 13px;&quot;&gt;GateWay&lt;/span&gt;" style="html=1;dropTarget=0;" parent="1" vertex="1">
                    <mxGeometry x="-1120" y="385" width="610" height="60" as="geometry"/>
                </mxCell>
                <mxCell id="10" value="" style="shape=module;jettyWidth=8;jettyHeight=4;" parent="9" vertex="1">
                    <mxGeometry x="1" width="20" height="20" relative="1" as="geometry">
                        <mxPoint x="-27" y="7" as="offset"/>
                    </mxGeometry>
                </mxCell>
                <mxCell id="11" value="«Spring Cloud»&lt;br&gt;&lt;b&gt;User-Server&lt;/b&gt;" style="html=1;dropTarget=0;fillColor=#b0e3e6;strokeColor=#0e8088;" parent="1" vertex="1">
                    <mxGeometry x="-1230" y="520" width="170" height="180" as="geometry"/>
                </mxCell>
                <mxCell id="12" value="" style="shape=module;jettyWidth=8;jettyHeight=4;" parent="11" vertex="1">
                    <mxGeometry x="1" width="20" height="20" relative="1" as="geometry">
                        <mxPoint x="-27" y="7" as="offset"/>
                    </mxGeometry>
                </mxCell>
                <mxCell id="17" value="&lt;br&gt;MYSQL" style="strokeWidth=2;html=1;shape=mxgraph.flowchart.database;whiteSpace=wrap;fillColor=#cdeb8b;strokeColor=#36393d;" parent="1" vertex="1">
                    <mxGeometry x="-445" y="500" width="90" height="80" as="geometry"/>
                </mxCell>
                <mxCell id="18" value="«Spring Cloud»&lt;br&gt;&lt;b&gt;WorkSpace-Job&lt;/b&gt;" style="html=1;dropTarget=0;fillColor=#fad7ac;strokeColor=#b46504;" parent="1" vertex="1">
                    <mxGeometry x="-1110" y="720" width="150" height="52.5" as="geometry"/>
                </mxCell>
                <mxCell id="19" value="" style="shape=module;jettyWidth=8;jettyHeight=4;" parent="18" vertex="1">
                    <mxGeometry x="1" width="20" height="20" relative="1" as="geometry">
                        <mxPoint x="-27" y="7" as="offset"/>
                    </mxGeometry>
                </mxCell>
                <mxCell id="20" value="«Spring Cloud»&lt;br&gt;&lt;b&gt;DataSpace-Job&lt;/b&gt;" style="html=1;dropTarget=0;fillColor=#fad7ac;strokeColor=#b46504;" parent="1" vertex="1">
                    <mxGeometry x="-740" y="720" width="150" height="52.5" as="geometry"/>
                </mxCell>
                <mxCell id="21" value="" style="shape=module;jettyWidth=8;jettyHeight=4;" parent="20" vertex="1">
                    <mxGeometry x="1" width="20" height="20" relative="1" as="geometry">
                        <mxPoint x="-27" y="7" as="offset"/>
                    </mxGeometry>
                </mxCell>
                <mxCell id="22" value="Nacos" style="html=1;dropTarget=0;fillColor=#cdeb8b;strokeColor=#36393d;" parent="1" vertex="1">
                    <mxGeometry x="-460" y="610" width="120" height="50" as="geometry"/>
                </mxCell>
                <mxCell id="23" value="" style="shape=module;jettyWidth=8;jettyHeight=4;" parent="22" vertex="1">
                    <mxGeometry x="1" width="20" height="20" relative="1" as="geometry">
                        <mxPoint x="-27" y="7" as="offset"/>
                    </mxGeometry>
                </mxCell>
                <mxCell id="24" value="RocketMQ" style="html=1;dropTarget=0;fillColor=#cdeb8b;strokeColor=#36393d;" parent="1" vertex="1">
                    <mxGeometry x="-460" y="670" width="120" height="50" as="geometry"/>
                </mxCell>
                <mxCell id="25" value="" style="shape=module;jettyWidth=8;jettyHeight=4;" parent="24" vertex="1">
                    <mxGeometry x="1" width="20" height="20" relative="1" as="geometry">
                        <mxPoint x="-27" y="7" as="offset"/>
                    </mxGeometry>
                </mxCell>
                <mxCell id="43" value="" style="group;fontSize=13;" parent="1" vertex="1" connectable="0">
                    <mxGeometry x="-1320" y="810" width="990" height="180" as="geometry"/>
                </mxCell>
                <mxCell id="oEgxVoZ06rKnOK16Z4o3-11" value="" style="rounded=0;whiteSpace=wrap;html=1;container=0;fillColor=#fff2cc;strokeColor=#d6b656;fontSize=15;" parent="43" vertex="1">
                    <mxGeometry width="990" height="180" as="geometry"/>
                </mxCell>
                <mxCell id="oEgxVoZ06rKnOK16Z4o3-16" value="容器服务层" style="text;html=1;align=center;verticalAlign=middle;resizable=0;points=[];autosize=1;strokeColor=none;fillColor=none;fontSize=15;container=0;" parent="43" vertex="1">
                    <mxGeometry x="30" y="17.027027027026975" width="100" height="30" as="geometry"/>
                </mxCell>
                <mxCell id="31" value="kubernetes API" style="html=1;dropTarget=0;fillColor=#cce5ff;strokeColor=#36393d;fontSize=16;container=0;" parent="43" vertex="1">
                    <mxGeometry x="150" y="70" width="180" height="70" as="geometry"/>
                </mxCell>
                <mxCell id="41" value="Harbor" style="html=1;dropTarget=0;fillColor=#cce5ff;strokeColor=#36393d;fontSize=16;container=0;" parent="43" vertex="1">
                    <mxGeometry x="663" y="70" width="180" height="70" as="geometry"/>
                </mxCell>
                <mxCell id="32" value="" style="shape=module;jettyWidth=8;jettyHeight=4;container=0;" parent="43" vertex="1">
                    <mxGeometry x="303" y="80" width="20" height="20" as="geometry">
                        <mxPoint x="-27" y="7" as="offset"/>
                    </mxGeometry>
                </mxCell>
                <mxCell id="42" value="" style="shape=module;jettyWidth=8;jettyHeight=4;container=0;" parent="43" vertex="1">
                    <mxGeometry x="823" y="79.75" width="20" height="20" as="geometry">
                        <mxPoint x="-27" y="7" as="offset"/>
                    </mxGeometry>
                </mxCell>
                <mxCell id="46" value="&lt;span style=&quot;font-size: 15px;&quot;&gt;Docker&lt;/span&gt;" style="html=1;dropTarget=0;fontSize=15;fillColor=#cce5ff;strokeColor=#36393d;fontStyle=0" parent="43" vertex="1">
                    <mxGeometry x="400" y="70" width="180" height="70" as="geometry"/>
                </mxCell>
                <mxCell id="47" value="" style="shape=module;jettyWidth=8;jettyHeight=4;fontSize=16;" parent="46" vertex="1">
                    <mxGeometry x="1" width="20" height="20" relative="1" as="geometry">
                        <mxPoint x="-27" y="7" as="offset"/>
                    </mxGeometry>
                </mxCell>
                <mxCell id="13" value="" style="html=1;dropTarget=0;fillColor=#b0e3e6;strokeColor=#0e8088;" parent="1" vertex="1">
                    <mxGeometry x="-1040" y="520" width="450" height="180" as="geometry"/>
                </mxCell>
                <mxCell id="14" value="" style="shape=module;jettyWidth=8;jettyHeight=4;" parent="13" vertex="1">
                    <mxGeometry x="1" width="20" height="20" relative="1" as="geometry">
                        <mxPoint x="-27" y="7" as="offset"/>
                    </mxGeometry>
                </mxCell>
                <mxCell id="48" value="&lt;span style=&quot;font-size: 12px;&quot;&gt;«Spring Cloud»&lt;/span&gt;&lt;br style=&quot;border-color: var(--border-color); font-size: 12px;&quot;&gt;&lt;b style=&quot;border-color: var(--border-color); font-size: 12px;&quot;&gt;WorkSpace-Server&lt;/b&gt;" style="text;html=1;align=center;verticalAlign=middle;resizable=0;points=[];autosize=1;strokeColor=none;fillColor=none;fontSize=16;" parent="1" vertex="1">
                    <mxGeometry x="-1030" y="520" width="130" height="50" as="geometry"/>
                </mxCell>
                <mxCell id="49" value="workspace-svr" style="shape=module;align=left;spacingLeft=20;align=center;verticalAlign=top;fontSize=16;" parent="1" vertex="1">
                    <mxGeometry x="-960" y="580" width="140" height="50" as="geometry"/>
                </mxCell>
                <mxCell id="50" value="template-svr" style="shape=module;align=left;spacingLeft=20;align=center;verticalAlign=top;fontSize=16;" parent="1" vertex="1">
                    <mxGeometry x="-780" y="580" width="140" height="50" as="geometry"/>
                </mxCell>
                <mxCell id="51" value="dataspace-svr" style="shape=module;align=left;spacingLeft=20;align=center;verticalAlign=top;fontSize=16;" parent="1" vertex="1">
                    <mxGeometry x="-960" y="640" width="140" height="50" as="geometry"/>
                </mxCell>
                <mxCell id="52" value="image-svr" style="shape=module;align=left;spacingLeft=20;align=center;verticalAlign=top;fontSize=16;" parent="1" vertex="1">
                    <mxGeometry x="-780" y="640" width="140" height="50" as="geometry"/>
                </mxCell>
                <mxCell id="64" style="edgeStyle=none;html=1;strokeWidth=2;fontSize=10;endArrow=none;endFill=0;entryX=0.5;entryY=0;entryDx=0;entryDy=0;" parent="1" source="75" target="67" edge="1">
                    <mxGeometry relative="1" as="geometry">
                        <mxPoint x="-825" y="30" as="sourcePoint"/>
                        <mxPoint x="-880" y="170" as="targetPoint"/>
                    </mxGeometry>
                </mxCell>
                <mxCell id="87" value="https" style="edgeLabel;html=1;align=center;verticalAlign=middle;resizable=0;points=[];fontSize=10;" parent="64" vertex="1" connectable="0">
                    <mxGeometry x="-0.3667" y="-4" relative="1" as="geometry">
                        <mxPoint as="offset"/>
                    </mxGeometry>
                </mxCell>
                <mxCell id="65" style="edgeStyle=none;html=1;strokeWidth=2;fontSize=10;endArrow=none;endFill=0;" parent="1" source="62" target="7" edge="1">
                    <mxGeometry relative="1" as="geometry"/>
                </mxCell>
                <mxCell id="84" value="http" style="edgeLabel;html=1;align=center;verticalAlign=middle;resizable=0;points=[];fontSize=10;" parent="65" vertex="1" connectable="0">
                    <mxGeometry x="-0.1068" y="3" relative="1" as="geometry">
                        <mxPoint as="offset"/>
                    </mxGeometry>
                </mxCell>
                <mxCell id="66" style="edgeStyle=none;html=1;strokeWidth=2;fontSize=10;endArrow=none;endFill=0;" parent="1" source="62" target="9" edge="1">
                    <mxGeometry relative="1" as="geometry"/>
                </mxCell>
                <mxCell id="83" value="http" style="edgeLabel;html=1;align=center;verticalAlign=middle;resizable=0;points=[];fontSize=10;" parent="66" vertex="1" connectable="0">
                    <mxGeometry x="0.2341" y="3" relative="1" as="geometry">
                        <mxPoint as="offset"/>
                    </mxGeometry>
                </mxCell>
                <mxCell id="62" value="Nginx&lt;font style=&quot;font-size: 9px;&quot;&gt;（https 证书）&lt;/font&gt;" style="html=1;dropTarget=0;" parent="1" vertex="1">
                    <mxGeometry x="-1120" y="300" width="280" height="60" as="geometry"/>
                </mxCell>
                <mxCell id="63" value="" style="shape=module;jettyWidth=8;jettyHeight=4;" parent="62" vertex="1">
                    <mxGeometry x="1" width="20" height="20" relative="1" as="geometry">
                        <mxPoint x="-27" y="7" as="offset"/>
                    </mxGeometry>
                </mxCell>
                <mxCell id="67" value="" style="rounded=0;whiteSpace=wrap;html=1;fontSize=13;fillColor=#ffcc99;strokeColor=#36393d;" parent="1" vertex="1">
                    <mxGeometry x="-1320" y="170" width="990" height="90" as="geometry"/>
                </mxCell>
                <mxCell id="68" value="网络接入" style="text;html=1;strokeColor=none;fillColor=none;align=center;verticalAlign=middle;whiteSpace=wrap;rounded=0;fontSize=15;" parent="1" vertex="1">
                    <mxGeometry x="-1290" y="180" width="70" height="30" as="geometry"/>
                </mxCell>
                <mxCell id="69" value="DNS" style="html=1;dropTarget=0;" parent="1" vertex="1">
                    <mxGeometry x="-1120" y="190" width="170" height="60" as="geometry"/>
                </mxCell>
                <mxCell id="70" value="" style="shape=module;jettyWidth=8;jettyHeight=4;" parent="69" vertex="1">
                    <mxGeometry x="1" width="20" height="20" relative="1" as="geometry">
                        <mxPoint x="-27" y="7" as="offset"/>
                    </mxGeometry>
                </mxCell>
                <mxCell id="71" value="公网IP" style="html=1;dropTarget=0;" parent="1" vertex="1">
                    <mxGeometry x="-900" y="190" width="170" height="60" as="geometry"/>
                </mxCell>
                <mxCell id="72" value="" style="shape=module;jettyWidth=8;jettyHeight=4;" parent="71" vertex="1">
                    <mxGeometry x="1" width="20" height="20" relative="1" as="geometry">
                        <mxPoint x="-27" y="7" as="offset"/>
                    </mxGeometry>
                </mxCell>
                <mxCell id="73" value="FireWall" style="html=1;dropTarget=0;" parent="1" vertex="1">
                    <mxGeometry x="-690" y="190" width="170" height="60" as="geometry"/>
                </mxCell>
                <mxCell id="74" value="" style="shape=module;jettyWidth=8;jettyHeight=4;" parent="73" vertex="1">
                    <mxGeometry x="1" width="20" height="20" relative="1" as="geometry">
                        <mxPoint x="-27" y="7" as="offset"/>
                    </mxGeometry>
                </mxCell>
                <mxCell id="75" value="" style="rounded=0;whiteSpace=wrap;html=1;fontSize=13;fillColor=#bac8d3;strokeColor=#23445d;" parent="1" vertex="1">
                    <mxGeometry x="-1320" y="50" width="990" height="90" as="geometry"/>
                </mxCell>
                <mxCell id="76" value="PC（Win/Linux/MacOS）-Browser" style="html=1;dropTarget=0;" parent="1" vertex="1">
                    <mxGeometry x="-1120" y="65" width="260" height="60" as="geometry"/>
                </mxCell>
                <mxCell id="77" value="" style="shape=module;jettyWidth=8;jettyHeight=4;" parent="76" vertex="1">
                    <mxGeometry x="1" width="20" height="20" relative="1" as="geometry">
                        <mxPoint x="-27" y="7" as="offset"/>
                    </mxGeometry>
                </mxCell>
                <mxCell id="78" value="访问设备" style="text;html=1;strokeColor=none;fillColor=none;align=center;verticalAlign=middle;whiteSpace=wrap;rounded=0;fontSize=15;" parent="1" vertex="1">
                    <mxGeometry x="-1290" y="65" width="70" height="30" as="geometry"/>
                </mxCell>
                <mxCell id="79" value="PAD（IOS / Android）-Browser" style="html=1;dropTarget=0;" parent="1" vertex="1">
                    <mxGeometry x="-800" y="65" width="280" height="60" as="geometry"/>
                </mxCell>
                <mxCell id="80" value="" style="shape=module;jettyWidth=8;jettyHeight=4;" parent="79" vertex="1">
                    <mxGeometry x="1" width="20" height="20" relative="1" as="geometry">
                        <mxPoint x="-27" y="7" as="offset"/>
                    </mxGeometry>
                </mxCell>
            </root>
        </mxGraphModel>
    </diagram>
</mxfile>